<svg xmlns="http://www.w3.org/2000/svg" width="120" height="120" viewBox="0 0 120 120">
  <g id="Oberflaeche_Icon" data-name="Oberflaeche Icon" transform="translate(-147 -2039.228)">
    <g id="Second_Half" data-name="Second Half" transform="translate(147 2055.228)">
      <g id="Ellipse_11" data-name="Ellipse 11" transform="translate(0 20)" fill="none" stroke="#999" stroke-width="4">
        <ellipse cx="60" cy="23.5" rx="60" ry="23.5" stroke="none"/>
        <ellipse cx="60" cy="23.5" rx="58" ry="21.5" fill="none"/>
      </g>
      <g id="Ellipse_12" data-name="Ellipse 12" transform="translate(6 44)" fill="none" stroke="#999" stroke-width="4">
        <ellipse cx="54.5" cy="21" rx="54.5" ry="21" stroke="none"/>
        <ellipse cx="54.5" cy="21" rx="52.5" ry="19" fill="none"/>
      </g>
      <g id="Ellipse_13" data-name="Ellipse 13" transform="translate(6)" fill="none" stroke="#999" stroke-width="4">
        <ellipse cx="54.5" cy="22" rx="54.5" ry="22" stroke="none"/>
        <ellipse cx="54.5" cy="22" rx="52.5" ry="20" fill="none"/>
      </g>
    </g>
    <g id="First_Half" data-name="First Half" transform="translate(161 2159.228) rotate(-90)">
      <g id="Ellipse_11-2" data-name="Ellipse 11" transform="translate(0 21)" fill="none" stroke="#999" stroke-width="4">
        <ellipse cx="60" cy="24" rx="60" ry="24" stroke="none"/>
        <ellipse cx="60" cy="24" rx="58" ry="22" fill="none"/>
      </g>
      <g id="Ellipse_12-2" data-name="Ellipse 12" transform="translate(7 46)" fill="none" stroke="#999" stroke-width="4">
        <ellipse cx="53.5" cy="21.5" rx="53.5" ry="21.5" stroke="none"/>
        <ellipse cx="53.5" cy="21.5" rx="51.5" ry="19.5" fill="none"/>
      </g>
      <g id="Ellipse_13-2" data-name="Ellipse 13" transform="translate(7)" fill="none" stroke="#999" stroke-width="4">
        <ellipse cx="53.5" cy="22.5" rx="53.5" ry="22.5" stroke="none"/>
        <ellipse cx="53.5" cy="22.5" rx="51.5" ry="20.5" fill="none"/>
      </g>
    </g>
    <g id="Ellipse_7" data-name="Ellipse 7" transform="translate(147 2039.228)" fill="none" stroke="#999" stroke-width="4">
      <circle cx="60" cy="60" r="60" stroke="none"/>
      <circle cx="60" cy="60" r="58" fill="none"/>
    </g>
  </g>
</svg>
