<svg xmlns="http://www.w3.org/2000/svg" width="240" height="82.729" viewBox="0 0 240 82.729">
  <g id="amazon-logo" transform="translate(14.636 10.126)">
    <rect id="Rectangle_56" data-name="Rectangle 56" width="240" height="82.729" transform="translate(-14.636 -10.126)" fill="#fff"/>
    <path id="path8" d="M187.433,125.3c-12.4,9.138-30.366,14.013-45.837,14.013a82.945,82.945,0,0,1-56-21.368c-1.161-1.049-.121-2.479,1.272-1.662A112.7,112.7,0,0,0,142.9,131.144a111.4,111.4,0,0,0,42.735-8.738c2.1-.891,3.854,1.374,1.8,2.9" transform="translate(-56.388 -75.934)" fill="#f90"/>
    <path id="path10" d="M360.3,115.341c-1.579-2.024-10.475-.956-14.468-.483-1.217.149-1.4-.91-.306-1.672,7.085-4.987,18.712-3.547,20.068-1.876s-.353,13.335-7.011,18.9c-1.022.854-2,.4-1.542-.734,1.5-3.733,4.847-12.1,3.259-14.134" transform="translate(-224.102 -71.869)" fill="#f90"/>
    <path id="path12" d="M346.246,8.993V4.146a1.2,1.2,0,0,1,1.226-1.226h21.7a1.208,1.208,0,0,1,1.254,1.226V8.3c-.009.7-.594,1.607-1.634,3.046L357.547,27.4a23.961,23.961,0,0,1,12.379,2.656,2.208,2.208,0,0,1,1.151,1.885v5.172c0,.706-.78,1.532-1.6,1.105a25,25,0,0,0-22.928.037c-.752.409-1.542-.409-1.542-1.114V32.228a5.861,5.861,0,0,1,.8-3.334L358.838,10.21H347.5a1.2,1.2,0,0,1-1.254-1.217" transform="translate(-224.236 -2.879)" fill="#221f1f"/>
    <path id="path14" d="M110.811,38.1h-6.6a1.247,1.247,0,0,1-1.179-1.124V3.1A1.239,1.239,0,0,1,104.3,1.879h6.157a1.243,1.243,0,0,1,1.2,1.133v4.43h.121c1.607-4.281,4.625-6.278,8.692-6.278,4.132,0,6.714,2,8.571,6.278A9.751,9.751,0,0,1,145.8,4.869c2.089,2.851,1.662,6.993,1.662,10.623l-.009,21.386a1.247,1.247,0,0,1-1.272,1.226h-6.593a1.255,1.255,0,0,1-1.189-1.226V18.919a42.413,42.413,0,0,0-.186-6.352c-.492-2.275-1.969-2.916-3.882-2.916a4.386,4.386,0,0,0-3.947,2.777c-.678,1.709-.613,4.569-.613,6.491v17.96A1.247,1.247,0,0,1,128.5,38.1h-6.593a1.248,1.248,0,0,1-1.189-1.226l-.009-17.96c0-3.78.622-9.342-4.067-9.342-4.745,0-4.56,5.423-4.56,9.342v17.96a1.247,1.247,0,0,1-1.272,1.226" transform="translate(-67.967 -1.745)" fill="#221f1f"/>
    <path id="path16" d="M442.425,1.164c9.8,0,15.1,8.413,15.1,19.111,0,10.336-5.86,18.535-15.1,18.535-9.621,0-14.858-8.413-14.858-18.9,0-10.549,5.3-18.749,14.858-18.749m.056,6.918c-4.866,0-5.172,6.63-5.172,10.763s-.065,12.982,5.117,12.982c5.117,0,5.358-7.132,5.358-11.478a31.328,31.328,0,0,0-.984-8.989,4.13,4.13,0,0,0-4.318-3.278" transform="translate(-277.55 -1.745)" fill="#221f1f"/>
    <path id="path18" d="M533.837,38.1h-6.575a1.255,1.255,0,0,1-1.189-1.226l-.009-33.895a1.249,1.249,0,0,1,1.272-1.105h6.12a1.264,1.264,0,0,1,1.179.947V8.008h.121c1.848-4.634,4.439-6.844,9-6.844a8.663,8.663,0,0,1,7.708,3.993c1.727,2.712,1.727,7.271,1.727,10.549V37.036a1.269,1.269,0,0,1-1.272,1.068H545.3a1.25,1.25,0,0,1-1.17-1.068V18.631c0-3.705.427-9.128-4.132-9.128a4.315,4.315,0,0,0-3.817,2.712,15,15,0,0,0-1.049,6.417V36.879a1.269,1.269,0,0,1-1.291,1.226" transform="translate(-341.159 -1.745)" fill="#221f1f"/>
    <path id="use28" d="M19.819,21.326V19.9C15.046,19.9,10,20.917,10,26.545c0,2.851,1.477,4.782,4.012,4.782a5.353,5.353,0,0,0,4.569-3c1.3-2.284,1.235-4.43,1.235-7m6.658,16.093a1.379,1.379,0,0,1-1.56.158,16.256,16.256,0,0,1-3.789-4.4c-3.622,3.7-6.185,4.8-10.884,4.8C4.691,37.976.364,34.55.364,27.687A11.219,11.219,0,0,1,7.4,16.9c3.584-1.579,8.59-1.857,12.416-2.294v-.854c0-1.569.121-3.427-.8-4.782a4.418,4.418,0,0,0-3.705-1.718c-2.517,0-4.764,1.291-5.312,3.965A1.381,1.381,0,0,1,8.861,12.42l-6.408-.687a1.169,1.169,0,0,1-.984-1.384C2.946,2.586,9.957.246,16.234.246c3.213,0,7.41.854,9.946,3.287,3.213,3,2.907,7,2.907,11.357V25.18c0,3.092,1.282,4.448,2.489,6.12a1.24,1.24,0,0,1-.019,1.755c-1.347,1.124-3.742,3.213-5.061,4.383l-.019-.019" transform="translate(84.891 -1.153)" fill="#221f1f"/>
    <path id="path30" d="M19.819,21.326V19.9C15.046,19.9,10,20.917,10,26.545c0,2.851,1.477,4.782,4.012,4.782a5.353,5.353,0,0,0,4.569-3c1.3-2.284,1.235-4.43,1.235-7m6.658,16.093a1.379,1.379,0,0,1-1.56.158,16.256,16.256,0,0,1-3.789-4.4c-3.622,3.7-6.185,4.8-10.884,4.8C4.691,37.976.364,34.55.364,27.687A11.219,11.219,0,0,1,7.4,16.9c3.584-1.579,8.59-1.857,12.416-2.294v-.854c0-1.569.121-3.427-.8-4.782a4.418,4.418,0,0,0-3.705-1.718c-2.517,0-4.764,1.291-5.312,3.965A1.381,1.381,0,0,1,8.861,12.42l-6.408-.687a1.169,1.169,0,0,1-.984-1.384C2.946,2.586,9.957.246,16.234.246c3.213,0,7.41.854,9.946,3.287,3.213,3,2.907,7,2.907,11.357V25.18c0,3.092,1.282,4.448,2.489,6.12a1.24,1.24,0,0,1-.019,1.755c-1.347,1.124-3.742,3.213-5.061,4.383l-.019-.019" transform="translate(-1.667 -1.153)" fill="#221f1f"/>
  </g>
</svg>
