<svg xmlns="http://www.w3.org/2000/svg" width="240" height="32.093" viewBox="0 0 240 32.093">
  <g id="mediamarkt-logo" transform="translate(-20 -93)">
    <g id="Artboard" transform="translate(20 93)">
      <g id="Media_Markt-1-Copy" transform="translate(0 0)">
        <path id="Fill-2" d="M209.684,11.752l.072-.456a.628.628,0,0,0-.617-.746h-3.277a.629.629,0,0,0-.625.511l-.091.5-3.5,19.14a.641.641,0,0,0,.147.52.658.658,0,0,0,.5.223l1.617-.025h1.52a.627.627,0,0,0,.616-.5l2.4-11.879A5.16,5.16,0,0,1,213,14.866a2.414,2.414,0,0,0,.526-.056c-1.209,7.2-2.64,15.73-2.664,15.872a.63.63,0,0,0,.619.733h3.53a.622.622,0,0,0,.6-.443c.113-.347.957-5.241,1.464-8.18,1.307,1.982,5.48,8.333,5.48,8.333a.631.631,0,0,0,.527.283l4.218.007a.687.687,0,0,0,.217-.041.663.663,0,0,0,.288.066l3.561-.025a.626.626,0,0,0,.616-.519l2.749-15.88,4.089-.005a.632.632,0,0,0,.621-.523l.55-3.2a.542.542,0,0,0,.011-.107.643.643,0,0,0-.146-.4.633.633,0,0,0-.486-.224h-4.027c.2-1.132.914-5.311.914-5.311a.984.984,0,0,0,.008-.107.629.629,0,0,0-.628-.631h-3.54a.633.633,0,0,0-.621.522s-.788,4.67-.934,5.526c-.32.01-.65.016-.65.016l-.552,0-.586-.011a.628.628,0,0,0-.544.292.62.62,0,0,0-.519-.285l-3.241-.007H223.5a.646.646,0,0,0-.464.2s-3.26,3.737-4.991,5.612c.507-2.971,1.9-11.127,1.9-11.127a.979.979,0,0,0,.008-.109.636.636,0,0,0-.631-.628L215.8,4.5a.628.628,0,0,0-.625.52c-.082.486-.448,2.657-.938,5.548a.152.152,0,0,0-.016-.025.615.615,0,0,0-.5-.216A7.941,7.941,0,0,0,209.684,11.752Zm17.663,17.919c-1.452-2.333-5.693-9.143-6.066-9.744.49-.579,5.654-6.872,6.7-8.1l-.464,2.439a.624.624,0,0,0,.137.519.634.634,0,0,0,.486.229h1.609C229.567,16.123,227.884,26.377,227.346,29.671ZM106.277,21.525a8.529,8.529,0,0,1-5.544,5.593,6.007,6.007,0,0,1-4.078-.531A5.667,5.667,0,0,1,94.808,23.7a6.605,6.605,0,0,1-.1-1.127,8.01,8.01,0,0,1,3.556-6.325,6.066,6.066,0,0,1,4.7-.915,4.277,4.277,0,0,1,2.869,2.112,5.4,5.4,0,0,1,.653,2.617A5.062,5.062,0,0,1,106.277,21.525ZM88.324,5l-.762,4.139a.632.632,0,0,0,.625.753H91.87a.631.631,0,0,0,.621-.519l.692-4.1a.657.657,0,0,0-.137-.519.638.638,0,0,0-.481-.229l-3.62-.03A.631.631,0,0,0,88.324,5ZM80.368,21.525h0a5.108,5.108,0,0,0,.2-1.468,5.414,5.414,0,0,0-.649-2.617,4.289,4.289,0,0,0-2.873-2.112,6.069,6.069,0,0,0-4.7.915,8.021,8.021,0,0,0-3.556,6.325,6.608,6.608,0,0,0,.1,1.127,5.661,5.661,0,0,0,1.849,2.892,6.005,6.005,0,0,0,4.076.531A8.543,8.543,0,0,0,80.368,21.525ZM50.155,18.572h0l9.767-.092a3.578,3.578,0,0,0-1.215-2.128,5.446,5.446,0,0,0-3.678-1.082A6.763,6.763,0,0,0,50.155,18.572Zm148.012,2.953a8.52,8.52,0,0,1-5.544,5.593,5.987,5.987,0,0,1-4.074-.531A5.657,5.657,0,0,1,186.7,23.7a6.9,6.9,0,0,1-.1-1.127,8.007,8.007,0,0,1,3.56-6.325,6.06,6.06,0,0,1,4.7-.915,4.277,4.277,0,0,1,2.869,2.112,5.445,5.445,0,0,1,.65,2.617A5.061,5.061,0,0,1,198.168,21.525ZM0,31.092V30.7a.45.45,0,0,1,.075-.115L26.318.333a.483.483,0,0,1,.359-.161h4.237a.478.478,0,0,1,.365.173.489.489,0,0,1,.108.3.608.608,0,0,1-.012.1s-3.287,16.236-3.9,19.173C29.546,17.575,44.821.333,44.821.333a.456.456,0,0,1,.351-.161H49.16a.469.469,0,0,1,.459.586l-4.186,17c.034-.063.064-.124.1-.184a13.168,13.168,0,0,1,9.875-7.1.228.228,0,0,1,.045,0c3.7-.188,6.564,1.214,8.28,4.047.01.015.016.029.027.045a11.985,11.985,0,0,1,1.157,4.611,13.465,13.465,0,0,1,3.669-5.521,11.039,11.039,0,0,1,10.056-3.015.784.784,0,0,1,.117.038l.33.142a8.365,8.365,0,0,1,2.375,1.369C81.845,10.374,82.973,5,82.973,5a.636.636,0,0,1,.62-.5h3.272a.632.632,0,0,1,.625.746l-4.773,25.74a.634.634,0,0,1-.624.516l-3.246-.01a.624.624,0,0,1-.636-.627.541.541,0,0,1,.012-.116s.082-.432.134-.717a11.106,11.106,0,0,1-7.836,1.815,8.322,8.322,0,0,1-6.081-6.386,12.654,12.654,0,0,1-.2-2.408.634.634,0,0,1-.425.164s-14.358.005-15.072.007a.681.681,0,0,0-.026.183,3.328,3.328,0,0,0,.183.871s.044.156.064.223a4.545,4.545,0,0,0,4.379,2.814,7.332,7.332,0,0,0,5.324-2.754.623.623,0,0,1,.468-.212h3.361a.639.639,0,0,1,.575.906,12,12,0,0,1-10.676,6.707,8.448,8.448,0,0,1-7.2-4.184,9.931,9.931,0,0,1-1.05-4.757l-1.972,8.008a.477.477,0,0,1-.463.363H37.451a.483.483,0,0,1-.474-.474.584.584,0,0,1,.012-.111c1.661-6.914,3.989-16.742,4.834-20.63C39.791,12.561,23.857,31.2,23.857,31.2a.459.459,0,0,1-.355.164L19.91,31.4a.479.479,0,0,1-.477-.474.411.411,0,0,1,.01-.1c1.52-7,3.646-16.959,4.394-20.834-1.96,2.341-17.762,21.24-17.762,21.24A.486.486,0,0,1,5.7,31.4c-1.226-.042-2.151-.037-3.224-.031H.427A.461.461,0,0,1,0,31.092ZM204.01,10.777a.628.628,0,0,0-.483-.227h-3.275a.632.632,0,0,0-.619.5l-.253,1.239a7.586,7.586,0,0,0-2.492-1.474l-.326-.142a.767.767,0,0,0-.12-.038,11.037,11.037,0,0,0-10.055,3.015,13.7,13.7,0,0,0-3.3,4.581l4.3-17.474A.472.472,0,0,0,187.3.352a.467.467,0,0,0-.371-.18h-3.986a.458.458,0,0,0-.355.161s-15.274,17.242-17.343,19.58C165.855,16.977,169.262.74,169.262.74c0-.031.008-.067.008-.1a.457.457,0,0,0-.105-.3A.477.477,0,0,0,168.8.172h-4.4a.476.476,0,0,0-.358.161l-22,25.407a30.282,30.282,0,0,0-2.129-7.727c-2.948-6.041-9.507-8-13.227-4.533l-.026.005-.583.423c2.7-4.307,9.544-4.115,13.952.956a23.779,23.779,0,0,1,3.348,5.858,16.308,16.308,0,0,0,.665-3.829,24.113,24.113,0,0,0-4.881-4.93c-5.568-3.756-12.233-2.169-13.723,2.691l-.019.02-.288.657c.182-5.082,6.2-8.337,12.554-6.151a23.759,23.759,0,0,1,6.007,3.529c-.041-.194-.082-.388-.135-.582a15.943,15.943,0,0,0-1.409-3.636,24.121,24.121,0,0,0-6.639-1.808c-6.7-.466-11.677,4.234-10.538,9.191l-.008.026.075.716c-2.38-4.494,1.206-10.319,7.8-11.606a23.754,23.754,0,0,1,6.824.03A16.142,16.142,0,0,0,136.4,2.405a23.9,23.9,0,0,0-6.588,1.748c-6.033,2.945-7.994,9.508-4.53,13.231l0,.022.426.587c-4.308-2.7-4.113-9.548.953-13.954a23.806,23.806,0,0,1,5.89-3.372A15.978,15.978,0,0,0,128.082,0a24.07,24.07,0,0,0-4.663,4.677c-3.754,5.571-2.17,12.233,2.689,13.726l.018.016.661.294c-5.08-.183-8.334-6.207-6.148-12.559A23.654,23.654,0,0,1,123.865.535a16.2,16.2,0,0,0-3.6,1.415,23.99,23.99,0,0,0-1.7,6.4c-.468,6.705,4.235,11.681,9.19,10.543l.022.007.721-.081c-4.494,2.386-10.324-1.2-11.6-7.8a23.645,23.645,0,0,1,0-6.618,16.274,16.274,0,0,0-2.783,3.48,24.077,24.077,0,0,0,1.708,6.276c2.946,6.039,9.5,8,13.226,4.531l.027-.005.582-.422c-2.7,4.307-9.544,4.115-13.948-.956a24.409,24.409,0,0,1-3.439-6.11.621.621,0,0,0-.631-.646h-3.271a.635.635,0,0,0-.621.5,3.058,3.058,0,0,0-.367,1.134A8.4,8.4,0,0,0,105,10.817l-.332-.142a.8.8,0,0,0-.119-.038A11.037,11.037,0,0,0,94.5,13.651a13.522,13.522,0,0,0-3.676,5.521s-.022.052-.06.134l1.392-8.018a.632.632,0,0,0-.627-.738l-3.49,0a.637.637,0,0,0-.623.523L83.805,30.752a.648.648,0,0,0,.139.52.631.631,0,0,0,.485.223l3.679.01a.631.631,0,0,0,.625-.527l1.39-8c.015.051.027.083.027.083a12.221,12.221,0,0,0,.2,2.408,8.322,8.322,0,0,0,6.082,6.386,11.109,11.109,0,0,0,7.836-1.815c-.052.285-.135.717-.135.717a.645.645,0,0,0-.01.116.638.638,0,0,0,.145.4.63.63,0,0,0,.49.223l3.246.01a.629.629,0,0,0,.623-.516L111.488,15.5a37.3,37.3,0,0,0,4.937,4.71c5.566,3.759,12.228,2.172,13.717-2.687l.022-.02.29-.66c-.182,5.082-6.205,8.339-12.557,6.149a23.755,23.755,0,0,1-5.624-3.228c.025.105.045.214.072.321a16.269,16.269,0,0,0,1.48,3.763,23.91,23.91,0,0,0,6.252,1.643c6.7.469,11.674-4.234,10.536-9.191l.01-.026-.079-.718c2.383,4.494-1.2,10.329-7.8,11.606a23.505,23.505,0,0,1-6.493.016,16.146,16.146,0,0,0,2.916,2.427,23.814,23.814,0,0,0,6.517-1.743c6.036-2.943,8-9.508,4.532-13.227l-.007-.029-.423-.581c4.308,2.7,4.116,9.542-.952,13.953a24.018,24.018,0,0,1-5.989,3.408,16.053,16.053,0,0,0,3.023.7h1.461a24.021,24.021,0,0,0,4.752-4.751c3.758-5.57,2.174-12.236-2.686-13.724l-.02-.02-.657-.291c5.081.184,8.336,6.208,6.149,12.561a23.837,23.837,0,0,1-3.514,5.987c.2-.044.382-.083.575-.134a16.262,16.262,0,0,0,3.458-1.321,23.974,23.974,0,0,0,1.778-6.584c.471-6.7-4.233-11.678-9.192-10.539l-.02-.005-.717.076c4.49-2.382,10.323,1.206,11.6,7.8a18.813,18.813,0,0,1,.186,6.615,8.053,8.053,0,0,1-.742,2.069q-.19.334-.477.792a.023.023,0,0,0,.005-.008c0,.008-.01.015-.015.025a.033.033,0,0,0,0,.018.472.472,0,0,0-.027.432.461.461,0,0,0,.432.272h2.043c1.073-.005,2-.011,3.224.031a.493.493,0,0,0,.38-.168l17.761-21.24c-.75,3.875-2.875,13.838-4.4,20.834a.614.614,0,0,0-.008.1.471.471,0,0,0,.477.474l3.593-.031a.463.463,0,0,0,.355-.164s15.93-18.639,17.968-21.02c-.849,3.889-3.175,13.716-4.833,20.63a.374.374,0,0,0-.016.111.479.479,0,0,0,.1.292.473.473,0,0,0,.373.182h4.25a.474.474,0,0,0,.462-.363l1.839-7.463.255-1.049c.008.3.012.537.012.537a12.547,12.547,0,0,0,.206,2.408,8.319,8.319,0,0,0,6.078,6.386,11.116,11.116,0,0,0,7.839-1.815c-.053.285-.135.717-.135.717a.619.619,0,0,0,.62.743l3.249.01a.63.63,0,0,0,.624-.516l2.933-15.59.7-4.2a.612.612,0,0,0-.147-.419Z" fill="#d9222a" fill-rule="evenodd"/>
      </g>
    </g>
  </g>
</svg>
