<svg xmlns="http://www.w3.org/2000/svg" xmlns:xlink="http://www.w3.org/1999/xlink" width="172" height="172" viewBox="0 0 172 172">
  <defs>
    <clipPath id="clip-path">
      <rect id="Rectangle_54" data-name="Rectangle 54" width="35" height="35" transform="translate(153 478)" fill="#fff"/>
    </clipPath>
  </defs>
  <g id="razer-sphere-pitch-black" transform="translate(-596 -3645)">
    <circle id="Ellipse_14" data-name="Ellipse 14" cx="86" cy="86" r="86" transform="translate(596 3645)"/>
    <g id="Mask_Group_5" data-name="Mask Group 5" transform="translate(512 3236)" clip-path="url(#clip-path)" style="isolation: isolate">
      <g id="razer-ths-logo" transform="translate(153.085 477.99)">
        <path id="Path_13" data-name="Path 13" d="M27.123,34.141H27.5v.075h-.146v.446h-.084v-.446h-.147Z" transform="translate(-0.254 -0.332)" fill="#44d62c"/>
        <path id="Path_14" data-name="Path 14" d="M27.644,34.141h.146l.116.409.114-.409h.146v.521h-.087v-.428h0l-.123.407h-.087l-.123-.407h-.023v.428h-.084Z" transform="translate(-0.254 -0.332)" fill="#44d62c"/>
        <path id="Path_15" data-name="Path 15" d="M19.3,10.016a12,12,0,0,0-.311,3.376c.259,1.265,1.23,1.2,1.589.574a2.248,2.248,0,0,0,.153-1.567A4.512,4.512,0,0,0,19.3,10.016Zm.865,3.616c-.121.272-.485.272-.618-.332a7.832,7.832,0,0,1,.1-2.019,3.885,3.885,0,0,1,.533,1.244A1.878,1.878,0,0,1,20.17,13.632Z" transform="translate(-0.254 -0.332)" fill="#44d62c"/>
        <path id="Path_16" data-name="Path 16" d="M18.99,15.994a2.246,2.246,0,0,0-1.434.65,4.53,4.53,0,0,0-1.349,2.424,12.053,12.053,0,0,0,3.08-1.422C20.258,16.791,19.708,15.994,18.99,15.994Zm-.06,1.224a7.851,7.851,0,0,1-1.8.919,3.91,3.91,0,0,1,.81-1.082,1.885,1.885,0,0,1,.97-.533c.295-.043.476.272.021.689Z" transform="translate(-0.254 -0.332)" fill="#44d62c"/>
        <path id="Path_17" data-name="Path 17" d="M35.008,1.2a.563.563,0,0,0-.178-.178.562.562,0,0,0-.953-.51l-.309.32-.588.233a1.04,1.04,0,0,0-.606-.021.43.43,0,0,1-.251,0A1.45,1.45,0,0,0,31.3,1.1a1.342,1.342,0,0,0-.517.092,1.272,1.272,0,0,0-.6.489l-.053.068a1.816,1.816,0,0,0-1.311,1,1.626,1.626,0,0,0-.1.327,2.806,2.806,0,0,0-.474-.286,2.949,2.949,0,0,0-3.007.444,3.028,3.028,0,0,0-1,3.133,5.391,5.391,0,0,0,.62,1.53A17.591,17.591,0,0,0,27.388,11a14.921,14.921,0,0,1,2.042,2.459c.028.048.055.1.078.142.578,1.1.471,1.9-.316,2.4a2.015,2.015,0,0,1-.832.29,3.63,3.63,0,0,0-.211-3.01,3.448,3.448,0,0,0-.426-.586,2.211,2.211,0,0,0-2.859-.656.56.56,0,0,0-.213.661.624.624,0,0,0,.039.085.563.563,0,0,0,.546.277,1.521,1.521,0,0,1,1.4.846,1.761,1.761,0,0,1-.014,1.814,7.16,7.16,0,0,1-.782-.75l-.1-.1-.059-.062a4.89,4.89,0,0,0-2.792-1.763,4.491,4.491,0,0,0-.592-2.115,6.344,6.344,0,0,0-1.976-2.156,3.59,3.59,0,0,0-.386-.238,4.493,4.493,0,0,0-3.277-3.95,3.933,3.933,0,0,0-4.318,1.66c-.082.123-.162.252-.238.386a17.878,17.878,0,0,0-1.512,4.046,16.571,16.571,0,0,1-1.125,3.19l-.085.153c-.315.544-.592.844-.889.94a.6.6,0,0,1-.546-.092c-.3-.2-.226-.617.037-1.413a5.1,5.1,0,0,0,.187-.654,1.743,1.743,0,0,0-.295-1.379,1.6,1.6,0,0,0-1.148-.6,1.711,1.711,0,0,0-1.646,1.05c-.046.082-.085.155-.116.215a1.365,1.365,0,0,0-.933-.9,1.5,1.5,0,0,0-.771-.288.5.5,0,0,1-.245-.08,1.027,1.027,0,0,0-.633-.147l-.473-.373-.21-.395a.562.562,0,0,0-.984-.023.59.59,0,0,0-.075.245.565.565,0,0,0-.318.254.608.608,0,0,0-.071.211.562.562,0,0,0,.425.613l.441.108.5.391a1.066,1.066,0,0,0,.284.533.434.434,0,0,1,.128.211,1.473,1.473,0,0,0,.455.695,1.361,1.361,0,0,0,.338.4,1.274,1.274,0,0,0,.729.275l.085.012a1.814,1.814,0,0,0,1.519.634,1.541,1.541,0,0,0,.334-.075,2.752,2.752,0,0,0,1.88,2.937,3.009,3.009,0,0,0,3.213-.7,5.377,5.377,0,0,0,1.015-1.3,17.545,17.545,0,0,0,1.422-3.746,14.8,14.8,0,0,1,1.107-3l.084-.139c.663-1.048,1.422-1.359,2.236-.924a1.955,1.955,0,0,1,.666.574,3.609,3.609,0,0,0-2.5,1.688,3.394,3.394,0,0,0-.295.672,2.213,2.213,0,0,0,.862,2.806.562.562,0,0,0,.7-.842,1.518,1.518,0,0,1,.03-1.638,1.763,1.763,0,0,1,1.578-.889,7.24,7.24,0,0,1-.249,1.047c-.016.048-.03.094-.043.137s-.014.048-.025.082a4.907,4.907,0,0,0-.132,3.3A4.515,4.515,0,0,0,15.5,16.017a6.371,6.371,0,0,0-.878,2.79,3.933,3.933,0,0,0,0,.45,4.468,4.468,0,0,0-1.777,4.816,3.931,3.931,0,0,0,3.595,2.911c.147,0,.3.012.453.012a17.679,17.679,0,0,0,4.265-.711,16.952,16.952,0,0,1,3.321-.617h.178a1.889,1.889,0,0,1,1.258.3.6.6,0,0,1,.194.519c-.028.355-.423.5-1.244.674a4.775,4.775,0,0,0-.658.169,1.738,1.738,0,0,0-1.047.944,1.587,1.587,0,0,0,.055,1.294,1.711,1.711,0,0,0,1.733.9H25.2a1.406,1.406,0,0,0-.355.734,1.358,1.358,0,0,0,.03.533,1.48,1.48,0,0,0,.135.812.476.476,0,0,1,.059.254,1.036,1.036,0,0,0,.194.613l-.087.6-.243.382a.561.561,0,0,0,.721.805.56.56,0,0,0,.38.149.551.551,0,0,0,.217-.044.562.562,0,0,0,.322-.675l-.128-.435.091-.627a1.045,1.045,0,0,0,.322-.514.441.441,0,0,1,.123-.219,1.463,1.463,0,0,0,.366-.737,1.365,1.365,0,0,0,.178-.494,1.279,1.279,0,0,0-.124-.762c-.011-.025-.023-.055-.032-.082a1.818,1.818,0,0,0-.21-1.633,1.493,1.493,0,0,0-.233-.252A2.843,2.843,0,0,0,27.4,28.6a2.948,2.948,0,0,0,1.12-2.827,3.021,3.021,0,0,0-2.212-2.435,5.4,5.4,0,0,0-1.635-.227,17.708,17.708,0,0,0-3.956.64,14.948,14.948,0,0,1-3.151.533h-.162c-1.244-.05-1.884-.546-1.917-1.473a1.985,1.985,0,0,1,.163-.865,3.633,3.633,0,0,0,2.712,1.322,3.418,3.418,0,0,0,.73-.08,2.216,2.216,0,0,0,2-2.148.562.562,0,0,0-1.077-.178,1.523,1.523,0,0,1-1.436.793,1.766,1.766,0,0,1-1.564-.919,7.191,7.191,0,0,1,1.041-.3L18.2,20.4l.084-.018a4.908,4.908,0,0,0,2.923-1.537,4.5,4.5,0,0,0,2.132.544,6.349,6.349,0,0,0,2.856-.633,4.087,4.087,0,0,0,.395-.219,4.482,4.482,0,0,0,5.063-.86,3.929,3.929,0,0,0,.691-4.59c-.066-.132-.139-.267-.215-.4A17.878,17.878,0,0,0,29.38,9.353a17.3,17.3,0,0,1-2.195-2.566c-.032-.05-.062-.1-.091-.149a1.9,1.9,0,0,1-.371-1.244.6.6,0,0,1,.355-.426c.323-.156.647.114,1.2.739a5.123,5.123,0,0,0,.473.483,1.742,1.742,0,0,0,1.343.435,1.6,1.6,0,0,0,1.093-.695A1.722,1.722,0,0,0,31.1,3.975c-.046-.082-.091-.151-.126-.208a1.4,1.4,0,0,0,.807-.068,1.354,1.354,0,0,0,.442-.29,1.475,1.475,0,0,0,.634-.522.5.5,0,0,1,.192-.178,1.038,1.038,0,0,0,.435-.473l.558-.224.453.021a.562.562,0,0,0,.581-.48.553.553,0,0,0-.073-.354Zm-1.066.256-.954.382a.384.384,0,0,1-.226.395c-.458.268-.288.471-.849.711-.116.048-.018.1-.371.259-.247.114-.617-.036-.805,0a.474.474,0,0,0-.3.787c.147.233.711,1.009.283,1.622a1.032,1.032,0,0,1-1.614.149c-.533-.448-1.287-1.777-2.282-1.3-1.032.5-.73,1.649-.123,2.619,1.285,2.047,3.94,3.879,5.132,6.252,1.463,2.909-1.612,6.312-5.344,4.537a3.359,3.359,0,0,1-.579.355c-1.6.775-3.68.832-4.914-.206-.576,1.37-2.61,1.726-2.961,1.809a6.4,6.4,0,0,0-1.777.6,2.312,2.312,0,0,0,4.233.622s.08,1.2-1.558,1.564a3.117,3.117,0,0,1-3.314-1.686,2.6,2.6,0,0,0-.711,1.878c.037,1.006.668,1.944,2.456,2.015,2.424.094,6.191-1.777,8.759-.976a2.431,2.431,0,0,1,.935,4.265,3.978,3.978,0,0,1-1.788.562c-.268.014-.284.139-.261.21s.178.1.407.076c.851-.082,1.765.414,1.359,1.7-.064.2.227.533.178.8-.078.382-.146.3-.165.421-.1.6-.355.478-.494.99a.377.377,0,0,1-.3.307L25.853,34.2l.162.553-.275-.46-.364.377.309-.485.147-1.018a.382.382,0,0,1-.231-.393c0-.533-.263-.485-.188-1.091.016-.123-.073-.062-.037-.45.023-.27.338-.515.4-.7a.474.474,0,0,0-.533-.65c-.275.011-1.23.11-1.546-.565a1.032,1.032,0,0,1,.677-1.473c.654-.24,2.182-.224,2.266-1.326.085-1.144-1.066-1.457-2.207-1.422-2.415.089-5.331,1.473-7.981,1.319-3.248-.188-4.661-4.551-1.256-6.9a3.3,3.3,0,0,1-.016-.677c.13-1.777,1.12-3.6,2.635-4.153-.9-1.184-.19-3.124-.087-3.467A6.454,6.454,0,0,0,18.08,9.39a2.319,2.319,0,0,0-2.666,3.355s-1.082-.533-.574-2.132a3.122,3.122,0,0,1,3.126-2.04A2.6,2.6,0,0,0,16.7,7.016c-.889-.471-2.017-.393-2.973,1.12-1.292,2.051-1.546,6.259-3.527,8.071a2.435,2.435,0,0,1-4.165-1.324,4.121,4.121,0,0,1,.409-1.827c.123-.242.023-.316-.05-.332-.1-.023-.178.1-.27.315a1.2,1.2,0,0,1-2.148.329c-.142-.155-.576-.071-.778-.251-.293-.259-.187-.275-.283-.355-.469-.391-.24-.533-.61-.922a.375.375,0,0,1-.117-.411l-.817-.642L.816,10.65h.533l-.14-.5.265.51.809.636a.386.386,0,0,1,.455,0c.46.265.551.014,1.04.382.1.075.091-.034.409.192.222.156.277.551.405.695a.475.475,0,0,0,.832-.137c.128-.243.519-1.12,1.262-1.056A1.032,1.032,0,0,1,7.62,12.7c-.119.688-.889,2,.018,2.625.945.647,1.791-.19,2.328-1.2,1.13-2.132,1.39-5.351,2.843-7.57,1.788-2.719,6.273-1.759,6.6,2.36a3.376,3.376,0,0,1,.6.332c1.473,1,2.559,2.77,2.276,4.357,1.477-.178,2.8,1.4,3.048,1.66a6.4,6.4,0,0,0,1.407,1.23,2.313,2.313,0,0,0-1.576-3.979s1-.67,2.132.569a3.132,3.132,0,0,1,.2,3.732,2.6,2.6,0,0,0,2-.332c.851-.533,1.349-1.55.515-3.133-1.139-2.148-4.645-4.473-5.232-7.1A2.431,2.431,0,0,1,28.012,3.3a3.976,3.976,0,0,1,1.379,1.267c.147.226.261.178.313.123s0-.2-.139-.393a1.2,1.2,0,0,1,.791-2.024c.2-.044.355-.464.606-.547.37-.126.331-.025.448-.069.578-.211.588.064,1.111-.059a.377.377,0,0,1,.414.1l.963-.387.4-.428-.274.462.51.128Z" transform="translate(-0.254 -0.332)" fill="#44d62c"/>
        <path id="Path_18" data-name="Path 18" d="M21.536,16.349a2.243,2.243,0,0,0,1.281.917,4.519,4.519,0,0,0,2.772-.043,11.924,11.924,0,0,0-2.767-1.955C21.6,14.858,21.175,15.732,21.536,16.349Zm1.445.38a1.882,1.882,0,0,1-.945-.558c-.178-.24,0-.556.6-.37a7.89,7.89,0,0,1,1.7,1.1,3.865,3.865,0,0,1-1.347-.167Z" transform="translate(-0.254 -0.332)" fill="#44d62c"/>
      </g>
    </g>
  </g>
</svg>
