<svg xmlns="http://www.w3.org/2000/svg" width="240" height="44.322" viewBox="0 0 240 44.322">
  <g id="Saturn-logo" transform="translate(152.95 -448.117)">
    <path id="path3878" d="M128.338,456.3,121.2,496.606h8.913l3.826-31.156h.394L138,496.606h8.874L139.736,456.3h-11.4" transform="translate(-166.031 -4.956)" fill="#fff"/>
    <path id="path3880" d="M329.241,475.977v.631l4.851,19.837h8.834l-5.166-17.51v-.118l.2-.158c2.366-1.972,3.747-5.561,3.747-10.017v-.71a12.128,12.128,0,0,0-3.273-8.834,10.8,10.8,0,0,0-7.848-3H319.5v40.266h7.414l1.1-.039v-33.68h1.341c3.194,0,3.826,3.273,3.865,5.6v1.972c-.158,3.865-1.854,5.245-3.155,5.482h-.039l-.789.276" transform="translate(-286.125 -4.834)" fill="#fff"/>
    <path id="path3882" d="M58.455,465.225v.552c0,6.31,3.825,9.465,7.335,12.3l.907.749c3.076,2.524,4.89,5.087,4.89,7.1v.158c0,2.879-1.223,3.549-2.485,3.549-1.183,0-2.563-1.223-2.563-3.747v-3.037H58.1V485.5c0,6.468,4.417,10.806,11,10.806,7.059,0,11.24-3.944,11.24-10.569v-.355c0-6.428-2.8-8.913-7.217-12.7l-.71-.592-1.262-1.065c-2.209-1.854-3.944-3.549-3.944-5.758v-.237c0-1.223.394-3.392,2.485-3.392,1.932,0,2.406,2.524,2.406,3.826v2.721h8.2v-2.761c0-6.626-4.141-10.924-10.609-10.924-5.4-.079-11.24,3.313-11.24,10.727" transform="translate(-127.816 -3.863)" fill="#fff"/>
    <path id="path3884" d="M183.6,456.3v6.981h6.389v33.286h8.637V463.281h5.482V456.3H183.6" transform="translate(-203.821 -4.956)" fill="#fff"/>
    <path id="path3886" d="M261.167,456.3v30.525c0,3.076-1.617,3.471-2.485,3.471-1.459,0-2.485-1.223-2.485-3.471V456.3h-8.6v31.511c0,5.8,4.338,9.5,11.082,9.5s11.082-3.747,11.082-9.5V456.3h-8.6" transform="translate(-242.581 -4.956)" fill="#fff"/>
    <path id="path3895" d="M407.429,456.3l.434,28.829h-.2L401.119,456.3H389.8v40.306h8.6l-.71-28.948h.2l6.665,28.948h11.2V456.3h-8.321" transform="translate(-328.7 -4.956)" fill="#fff"/>
    <path id="path3897" d="M-92.432,468.342c0,.039.079.789.079,1.3v.947l.079.079c4.535,3.707,9.347,8.795,10.175,12.541a4.056,4.056,0,0,1-.237,2.761,4.164,4.164,0,0,1-2.642,2.011c-6.507,2.209-22.006-2.051-34.705-8.282-9.031-4.456-17-9.781-22.361-15.026-5.009-4.851-6.35-8.637-5.048-10.885a4.505,4.505,0,0,1,2.485-1.932c4.141-1.617,12.029-.473,19.837,1.854a21.131,21.131,0,0,0-7.454,10.175h0c-.355,3.392,4.575,7.848,9.544,10.333,0,0,.276.118.276.079l-.039-.355c-1.183-8.44,5.245-21.1,11.989-23.9.434-.158.789-.276.868-.315-.039,0-.828-.079-.868-.079-.237,0-.473-.039-.71-.039-.276,0-.552-.039-.868-.039a20.794,20.794,0,0,0-10.806,2.84c-13.015-4.457-22.519-4.969-26.5-3.668a5.2,5.2,0,0,0-3.194,2.406,5.342,5.342,0,0,0,0,4.141c1.814,5.4,9.741,12.817,19.758,19.4a21.081,21.081,0,0,0,18.141,16.564l.434.039h.158c-.039-.039-.513-.394-.552-.434a20.138,20.138,0,0,1-6.7-9.544c.2.118.394.2.592.316l.473.237c15.854,7.848,32.5,11.831,39.832,9.386a5.577,5.577,0,0,0,3.431-2.445,5.561,5.561,0,0,0-.079-4.062c-1.38-4.141-7.335-10.451-14.868-16.051-.079-.039-.473-.355-.513-.355" transform="translate(0 0)" fill="#eb680b"/>
  </g>
</svg>
